<mxfile host="app.diagrams.net" modified="2024-04-30T00:09:57.406Z" agent="Mozilla/5.0 (Windows NT 10.0; Win64; x64) AppleWebKit/537.36 (KHTML, like Gecko) Chrome/124.0.0.0 Safari/537.36" etag="48Q4noLpmtenWIUCREMb" version="24.3.1" type="github">
  <diagram name="PÃ¡gina-1" id="kle034nBcpIm8sLm_HMZ">
    <mxGraphModel dx="1488" dy="600" grid="1" gridSize="10" guides="1" tooltips="1" connect="1" arrows="1" fold="1" page="1" pageScale="1" pageWidth="827" pageHeight="1169" math="0" shadow="0">
      <root>
        <mxCell id="0" />
        <mxCell id="1" parent="0" />
        <mxCell id="uSbZmD1hKaF5ep1M6cqf-1" value="usuario" style="shape=umlActor;verticalLabelPosition=bottom;verticalAlign=top;html=1;outlineConnect=0;" vertex="1" parent="1">
          <mxGeometry x="880" y="130" width="30" height="60" as="geometry" />
        </mxCell>
        <mxCell id="uSbZmD1hKaF5ep1M6cqf-2" value="medico&lt;div&gt;&lt;br&gt;&lt;/div&gt;" style="shape=umlActor;verticalLabelPosition=bottom;verticalAlign=top;html=1;outlineConnect=0;" vertex="1" parent="1">
          <mxGeometry x="1030" y="210" width="30" height="60" as="geometry" />
        </mxCell>
        <mxCell id="uSbZmD1hKaF5ep1M6cqf-3" value="paciente&lt;div&gt;&lt;br&gt;&lt;/div&gt;&lt;div&gt;&lt;br&gt;&lt;/div&gt;" style="shape=umlActor;verticalLabelPosition=bottom;verticalAlign=top;html=1;outlineConnect=0;" vertex="1" parent="1">
          <mxGeometry x="750" y="280" width="30" height="60" as="geometry" />
        </mxCell>
        <mxCell id="uSbZmD1hKaF5ep1M6cqf-4" value="financeiro&lt;div&gt;&lt;br&gt;&lt;/div&gt;" style="shape=umlActor;verticalLabelPosition=bottom;verticalAlign=top;html=1;outlineConnect=0;" vertex="1" parent="1">
          <mxGeometry x="979" y="390" width="30" height="60" as="geometry" />
        </mxCell>
      </root>
    </mxGraphModel>
  </diagram>
</mxfile>
